<svg width="18" height="18" viewBox="0 0 18 18" fill="none" xmlns="http://www.w3.org/2000/svg">
<path d="M5.20502 2.74977C5.20482 3.1476 5.04659 3.52905 4.76515 3.81021C4.4837 4.09138 4.10209 4.24922 3.70427 4.24902C3.30644 4.24883 2.92499 4.0906 2.64383 3.80915C2.36266 3.52771 2.20482 3.1461 2.20502 2.74827C2.20522 2.35045 2.36344 1.969 2.64489 1.68783C2.92633 1.40667 3.30794 1.24882 3.70577 1.24902C4.10359 1.24922 4.48504 1.40745 4.76621 1.68889C5.04737 1.97034 5.20522 2.35195 5.20502 2.74977V2.74977ZM5.25002 5.35977H2.25002V14.7498H5.25002V5.35977ZM9.99002 5.35977H7.00502V14.7498H9.96002V9.82227C9.96002 7.07727 13.5375 6.82227 13.5375 9.82227V14.7498H16.5V8.80227C16.5 4.17477 11.205 4.34727 9.96002 6.61977L9.99002 5.35977V5.35977Z" fill="#75757F"/>
</svg>
